<svg xmlns="http://www.w3.org/2000/svg" viewBox="0 0 50 50"><defs><style>.cls-1{fill:#fff;}</style></defs><title>rojoArtboard 15 copy 3</title><g id="OBJECTS"><path class="cls-1" d="M35.49,27.46a1.5,1.5,0,0,0,.8,2.89c4.39-1.2,14.54-8.89,10.63-14.47-2.47-3.51-7.74-.94-11.47,1.88.29-2.91-.12-5.93-2.46-7.45-2.79-1.8-5.68-.17-6.46,2.76-1.83,6.84,2.71,20.14,8.95,23.79A1.5,1.5,0,0,0,37,34.27c-4.29-2.5-6.25-9.7-7.19-14.2-.3-1.41-1.42-5.91-.07-7.11,1.79-1.58,2.72,2.57,2.71,3.79a16.28,16.28,0,0,1-.92,4.88A1.51,1.51,0,0,0,34,23.09c1.29-1.52,7-6.84,9.48-5.75C48,19.34,37.1,27,35.49,27.46Z"/><path class="cls-1" d="M16.76,12.23c-2.6,1.56-2.61,6.06-2.73,8.62a38.74,38.74,0,0,0,1.82,13.63,16.05,16.05,0,0,1-6.65-1c-.63-.24-3.15-1.12-3.27-1.84-.4-2.4,4.25-1.47,5.18-1.35,1.91.25,1.89-2.76,0-3-2.87-.37-8.85-.5-8.65,3.91.16,3.45,5.47,5.19,8.08,5.79a18.06,18.06,0,0,0,6.34.34c.32.79.67,1.58,1.05,2.36.84,1.73,3.43.21,2.59-1.52-.25-.5-.48-1-.7-1.55,4.66-1.66,7.82-5.76,7.13-12C26.56,21.09,22.63,8.68,16.76,12.23Zm2.15,21.7-.12,0A31.84,31.84,0,0,1,17.38,17.4c1.25-5.78,4.69.83,5.63,3.47C24.76,25.76,24.82,32.07,18.91,33.93Z"/></g></svg>